<svg id="Layer_1" data-name="Layer 1" xmlns="http://www.w3.org/2000/svg" viewBox="0 0 500 229.41"><defs><style>.cls-1{fill:#fff;}</style></defs><path class="cls-1" d="M14.46,74.61A5.51,5.51,0,0,1,20,69.11H55c14.69,0,24.05,3.67,29.86,9.47,5,5,7.58,11.14,7.58,19.67v.24c0,12.08-6.28,20.5-16.35,25.35L95.38,152l-28.33,4.54L48.11,128.35H42.19v29.88l-27.73,2.06Zm39.69,34c6.64,0,10.67-3,10.67-8.06v-.23c0-5.34-4.15-7.94-10.55-7.94H42.19v16.23ZM96.8,124.92V78.5l26.9,2.06v35.72c0,5.56,3.31,8.76,7.34,8.76s7.7-3.2,7.7-8.76V78.5h26.9V147h-26.9v-8.65c-4.14,5.33-10.66,10.19-19.78,10.19C105.33,148.5,96.8,139.5,96.8,124.92Zm80.68-16.54H169.9v-21h7.58c.12-6.87,1.78-12.44,5.81-16.47,4.38-4.38,10.07-6.16,19-6.16,7.94,0,12.8.71,16.47,1.78V83.32a37.29,37.29,0,0,0-8.65-.94c-4.14,0-6.28,1.65-6.28,5.21v.47h13.31v20.32H204.38v40.36l-26.9.82Zm50.47-.29h-6.33v-20H228c0-7.22,1.66-13,5.81-17.18,4.38-4.38,10.07-6.16,19-6.16,7.94,0,11.18.71,14.85,1.78V83.32a24.12,24.12,0,0,0-7-.94c-4.14,0-6.28,1.65-6.28,5.21v.47h13.31v20H254.85v39l-26.9.8ZM273,55l27.72-2.06v75.46H318L319.69,152,273,148.33Zm54.35,32.4h26.89v68l-26.89-2.06Zm39,20.74h-7.58V87.35h7.58c.12-6.87,1.78-12.44,5.81-16.47,4.38-4.38,10.07-6.16,19-6.16,7.93,0,12.79.71,16.46,1.78V83.32a37.2,37.2,0,0,0-8.64-.94c-4.15,0-6.28,1.65-6.28,5.21v.47h14.92v20H393.19v45.6l-26.9,1.65Zm44.06,6.46,0-.27c2.35-21.64,19.67-36.42,41.44-34.06,25.76,2.8,35.76,22,33.37,44.06-.17,1.59-.37,3.45-.68,5l-46.6-5.06c1.44,6.61,6.12,10.47,12.63,11.18,5.44.59,10.23-1.44,15.54-5.84l14.8,14.64c-8.18,8.51-19.1,13.91-34.77,12.21C422.34,153.87,407.9,137.12,410.35,114.55Zm48.25-1.49c.09-7-3.6-11.4-8.91-12-5-.54-9.09,3.32-10.74,9.85Z"/><path class="cls-1" d="M342.57,78.08c-.59-.49-1.28-1-1.88-1.56-1.13-1.08-1.69-1.14-3.17-.62a15.41,15.41,0,0,1-3.64.91,5,5,0,0,1-5.08-6.91,18.59,18.59,0,0,1,4.6-6.83c2.28-2,4.86-3,7.91-2.43a9.21,9.21,0,0,1,6.49,4.66,32.66,32.66,0,0,1,2.62,6.6,5.39,5.39,0,0,1-.72,4.53c-1.18,1.83-3,2.2-5,2.08A14.65,14.65,0,0,1,342.57,78.08Z"/><path class="cls-1" d="M344,51a6,6,0,0,1,2.07-2.56,4,4,0,0,1,6.08,1.49,6.64,6.64,0,0,1-2,8.16,4.1,4.1,0,0,1-6.39-2.2A6.71,6.71,0,0,1,344,51Z"/><path class="cls-1" d="M340.08,54.21a14.09,14.09,0,0,1-.92,1.31,4,4,0,0,1-5.89.33,6.57,6.57,0,0,1-.18-9,4,4,0,0,1,6.21.46C340.89,49.39,341,51.66,340.08,54.21Z"/><path class="cls-1" d="M359.58,64.23a5.8,5.8,0,0,1-3.71,3.27,3.62,3.62,0,0,1-4.8-4,5.87,5.87,0,0,1,5-5.22,3.51,3.51,0,0,1,4,3.55,16.24,16.24,0,0,1-.34,2.38Z"/><path class="cls-1" d="M330.61,62.46A3.55,3.55,0,0,1,325,64a5.9,5.9,0,0,1-1.94-6.75,3.59,3.59,0,0,1,5.65-1.64A5.83,5.83,0,0,1,330.61,62.46Z"/><path class="cls-1" d="M150.26,165.35h8.08a7.32,7.32,0,0,1,5.24,1.82,5.46,5.46,0,0,1,1.5,3.91v0a5.45,5.45,0,0,1-4.3,5.5l4.9,6.87H161.9l-4.46-6.33h-4v6.33h-3.18Zm7.85,9c2.28,0,3.73-1.2,3.73-3v-.05c0-1.94-1.4-3-3.76-3h-4.64v6.1Z"/><path class="cls-1" d="M182,165.35h13.45v2.85H185.15v4.72h9.1v2.88h-9.1v4.85h10.4v2.85H182Z"/><path class="cls-1" d="M211.08,180.85l1.92-2.28a8.38,8.38,0,0,0,5.73,2.36c2,0,3.22-.93,3.22-2.28v-.05c0-1.3-.73-2-4.1-2.78-3.86-.93-6-2.07-6-5.41v-.06c0-3.11,2.59-5.26,6.19-5.26a10.1,10.1,0,0,1,6.59,2.28l-1.71,2.41a8.29,8.29,0,0,0-4.93-1.86c-1.86,0-2.95,1-2.95,2.15v.05c0,1.4.83,2,4.33,2.85,3.83.94,5.8,2.31,5.8,5.32v.05c0,3.4-2.67,5.42-6.48,5.42A11.17,11.17,0,0,1,211.08,180.85Z"/><path class="cls-1" d="M241.06,174.48v-.06a9.18,9.18,0,0,1,9.33-9.38,9.48,9.48,0,0,1,7.13,2.83l-2,2.35a7.29,7.29,0,0,0-5.11-2.22,6.07,6.07,0,0,0-6,6.37v0c0,3.56,2.51,6.43,6,6.43a7.1,7.1,0,0,0,5.21-2.33l2,2.07a9.39,9.39,0,0,1-7.37,3.22A9.1,9.1,0,0,1,241.06,174.48Z"/><path class="cls-1" d="M273.7,175.8V165.35h3.19v10.32c0,3.37,1.73,5.16,4.59,5.16s4.56-1.69,4.56-5V165.35h3.19v10.29c0,5.42-3.06,8.14-7.81,8.14S273.7,181.06,273.7,175.8Z"/><path class="cls-1" d="M306.58,165.35H320v2.85H309.76v4.72h9.1v2.88h-9.1v4.85h10.4v2.85H306.58Z"/><path class="cls-1" d="M335.69,180.85l1.92-2.28a8.38,8.38,0,0,0,5.73,2.36c2,0,3.22-.93,3.22-2.28v-.05c0-1.3-.73-2-4.1-2.78-3.86-.93-6-2.07-6-5.41v-.06c0-3.11,2.59-5.26,6.2-5.26a10.09,10.09,0,0,1,6.58,2.28l-1.71,2.41a8.29,8.29,0,0,0-4.93-1.86c-1.86,0-2.95,1-2.95,2.15v.05c0,1.4.83,2,4.33,2.85,3.83.94,5.8,2.31,5.8,5.32v.05c0,3.4-2.67,5.42-6.48,5.42A11.17,11.17,0,0,1,335.69,180.85Z"/></svg>